<svg width="118" height="118" viewBox="0 0 118 118" fill="none" xmlns="http://www.w3.org/2000/svg">
<g id="Bootstrap ">
<rect x="1" y="1" width="116" height="116" rx="17" fill="white"/>
<rect x="1" y="1" width="116" height="116" rx="17" stroke="#6D6D6D" stroke-width="2"/>
<g id="bootstrap5">
<path id="Vector" fill-rule="evenodd" clip-rule="evenodd" d="M33.2779 24C28.2567 24 24.5413 28.3885 24.7077 33.1477C24.8673 37.7199 24.6599 43.6417 23.167 48.4709C21.6687 53.3137 19.1367 56.3825 15 56.7764V61.2236C19.1367 61.6183 21.6687 64.6856 23.1668 69.5291C24.6599 74.3583 24.8672 80.2801 24.7075 84.8523C24.5411 89.6108 28.2565 94 33.2786 94H84.7288C89.75 94 93.4647 89.6115 93.2983 84.8523C93.1387 80.2801 93.3461 74.3583 94.839 69.5291C96.3373 64.6856 98.8631 61.6171 103 61.2236V56.7764C98.8633 56.3817 96.3374 53.3144 94.839 48.4709C93.346 43.6424 93.1387 37.7199 93.2983 33.1477C93.4647 28.3892 89.75 24 84.7288 24H33.2772H33.2779ZM74.6611 67.0896C74.6611 73.6428 69.7659 77.6171 61.6422 77.6171H47.8135C47.4179 77.6171 47.0386 77.4602 46.7588 77.1809C46.4791 76.9016 46.322 76.5228 46.322 76.1277V41.8724C46.322 41.4774 46.4791 41.0986 46.7588 40.8193C47.0386 40.54 47.4179 40.3831 47.8135 40.3831H61.5635C68.3373 40.3831 72.7828 44.0469 72.7828 49.6721C72.7828 53.6204 69.7922 57.155 65.9823 57.7742V57.9802C71.1688 58.5483 74.6611 62.1353 74.6611 67.0896ZM60.1344 45.1043H52.2494V56.2257H58.8905C64.0244 56.2257 66.8552 54.1614 66.8552 50.4716C66.8547 47.0137 64.4209 45.1043 60.1344 45.1043ZM52.2494 60.6383V72.8943H60.4245C65.7698 72.8943 68.6011 70.7526 68.6011 66.7276C68.6011 62.7027 65.6904 60.6377 60.0807 60.6377H52.2494V60.6383Z" fill="#7952B3"/>
</g>
</g>
</svg>
