<svg width="118" height="118" viewBox="0 0 118 118" fill="none" xmlns="http://www.w3.org/2000/svg">
<g id="css">
<rect x="1" y="1" width="116" height="116" rx="17" fill="white"/>
<rect x="1" y="1" width="116" height="116" rx="17" stroke="#6D6D6D" stroke-width="2"/>
<g id="css3">
<g id="css3_2">
<path id="polygon2989" d="M90 24L84.3516 86.9927L58.9621 94L33.6424 87.0026L28 24H90Z" fill="#264DE4"/>
<path id="polygon2991" d="M79.516 82.9815L84.3429 29.1514H59V88.6439L79.516 82.9815Z" fill="#2965F1"/>
<path id="polygon2993" d="M40.935 52.5182L41.6307 60.2451H59V52.5182H40.935Z" fill="#EBEBEB"/>
<path id="polygon2995" d="M59 36.8784H58.9732H39.5372L40.2428 44.6055H59V36.8784Z" fill="#EBEBEB"/>
<path id="polygon2997" d="M59 80.6252V72.5858L58.966 72.5949L50.3217 70.2712L49.7691 64.1085H45.5686H41.9775L43.0649 76.241L58.9643 80.635L59 80.6252Z" fill="#EBEBEB"/>
<path id="polygon3005" d="M68.5309 60.245L67.63 70.2663L58.9732 72.5924V80.6314L74.8852 76.2411L75.0019 74.9357L76.8259 54.593L77.0152 52.5181L78.4165 36.8784H58.9732V44.6055H69.9103L69.204 52.5181H58.9732V60.245H68.5309Z" fill="white"/>
</g>
</g>
</g>
</svg>
