<svg width="118" height="118" viewBox="0 0 118 118" fill="none" xmlns="http://www.w3.org/2000/svg">
<g id="html5">
<rect x="1" y="1" width="116" height="116" rx="17" fill="white"/>
<rect x="1" y="1" width="116" height="116" rx="17" stroke="#6D6D6D" stroke-width="2"/>
<g id="html5_2">
<path id="Vector" d="M33.6395 87.0238L28 24H90L84.3605 86.9898L58.9487 94" fill="#E44D26"/>
<path id="Vector_2" d="M58.9998 88.6408V29.1731H84.3432L79.5069 82.9407" fill="#F16529"/>
<path id="Vector_3" d="M39.5182 36.8806H59V44.6055H48.0287L48.7464 52.5175H59V60.2253H41.6373L39.5182 36.8806ZM41.979 64.1047H49.7718L50.3186 70.2812L59 72.5953V80.6604L43.0728 76.2365" fill="#EBEBEB"/>
<path id="Vector_4" d="M78.4131 36.8806H58.9655V44.6055H77.6953L78.4131 36.8806ZM76.9947 52.5175H58.9655V60.2423H68.5355L67.6297 70.2812L58.9655 72.5953V80.6264L74.8585 76.2365" fill="white"/>
</g>
</g>
</svg>
