<svg width="118" height="118" viewBox="0 0 118 118" fill="none" xmlns="http://www.w3.org/2000/svg">
<g id="JS">
<rect x="1" y="1" width="116" height="116" rx="17" fill="white"/>
<rect x="1" y="1" width="116" height="116" rx="17" stroke="#6D6D6D" stroke-width="2"/>
<g id="js">
<g id="js_2">
<g id="js_3">
<path id="Vector" d="M94 24H24V94H94V24Z" fill="#F7DF1E"/>
<path id="Vector_2" d="M71.0222 78.6878C72.4322 80.9901 74.2666 82.6823 77.5111 82.6823C80.2366 82.6823 81.9778 81.3201 81.9778 79.4378C81.9778 77.1823 80.1889 76.3834 77.1889 75.0712L75.5444 74.3656C70.7978 72.3434 67.6444 69.8101 67.6444 64.4545C67.6444 59.5212 71.4033 55.7656 77.2778 55.7656C81.46 55.7656 84.4666 57.2212 86.6333 61.0323L81.5111 64.3212C80.3833 62.299 79.1666 61.5023 77.2778 61.5023C75.3511 61.5023 74.13 62.7245 74.13 64.3212C74.13 66.2945 75.3522 67.0934 78.1744 68.3156L79.8189 69.0201C85.4078 71.4167 88.5633 73.8601 88.5633 79.3534C88.5633 85.2756 83.9111 88.5201 77.6633 88.5201C71.5544 88.5201 67.6078 85.609 65.6766 81.7934L71.0222 78.6878ZM47.7855 79.2578C48.8189 81.0912 49.7589 82.6412 52.0189 82.6412C54.18 82.6412 55.5433 81.7956 55.5433 78.5078V56.1412H62.1211V78.5967C62.1211 85.4078 58.1278 88.5079 52.2989 88.5079C47.0322 88.5079 43.9822 85.7823 42.4311 82.4995L47.7855 79.2578Z" fill="black"/>
</g>
</g>
</g>
</g>
</svg>
