<svg width="118" height="117" viewBox="0 0 118 117" fill="none" xmlns="http://www.w3.org/2000/svg">
<g id="Nodjs ">
<rect x="1" y="1" width="116" height="115" rx="17" fill="white"/>
<rect x="1" y="1" width="116" height="115" rx="17" stroke="#6D6D6D" stroke-width="2"/>
<g id="nodejs">
<path id="Vector" d="M56.2929 25.7148C57.9323 24.7639 60.0677 24.7596 61.7057 25.7148C69.9465 30.4333 78.1899 35.1445 86.4293 39.8658C87.979 40.7504 89.0156 42.4981 88.9998 44.3076V72.6961C89.0114 74.5805 87.8723 76.3699 86.2374 77.2344C78.0236 81.9269 69.8142 86.6252 61.6019 91.3177C59.9285 92.2872 57.7503 92.2125 56.1292 91.1636C53.6668 89.717 51.2001 88.2777 48.7374 86.8326C48.2341 86.5285 47.6668 86.2866 47.3115 85.7922C47.6256 85.3631 48.1873 85.3097 48.6436 85.1223C49.6715 84.7911 50.6156 84.2595 51.5599 83.7436C51.7987 83.578 52.0902 83.6414 52.3191 83.7896C54.4248 85.0131 56.5119 86.272 58.6247 87.4838C59.0754 87.7474 59.5317 87.3974 59.917 87.1797C67.9772 82.5636 76.0472 77.9648 84.106 73.3473C84.4046 73.2017 84.5697 72.8805 84.5454 72.5491C84.551 63.1843 84.5468 53.8179 84.5482 44.4531C84.5824 44.0771 84.3676 43.7313 84.032 43.5774C75.8468 38.9063 67.6659 34.2281 59.4821 29.5559C59.3403 29.4571 59.1723 29.4041 59.0002 29.4039C58.8282 29.4036 58.6601 29.4561 58.518 29.5545C50.3342 34.2281 42.1546 38.9106 33.9708 43.5814C33.6364 43.7356 33.412 44.0756 33.4518 44.4531C33.4532 53.8179 33.4518 63.1843 33.4518 72.5505C33.4376 72.7122 33.4727 72.8745 33.5522 73.0154C33.6318 73.1563 33.7521 73.2691 33.8969 73.3387C36.0808 74.5936 38.2675 75.8397 40.4528 77.0903C41.6839 77.7618 43.1955 78.1608 44.5518 77.6463C45.7488 77.2113 46.5878 75.9735 46.565 74.6857C46.5763 65.3756 46.5594 56.064 46.5735 46.7554C46.5436 46.3421 46.9305 46.0006 47.327 46.0395C48.3764 46.0323 49.4271 46.0252 50.4764 46.0424C50.9144 46.0323 51.2158 46.4774 51.1617 46.8938C51.1574 56.2628 51.173 65.6321 51.1546 75.0012C51.1574 77.4981 50.1451 80.2151 47.8658 81.4368C45.0579 82.9108 41.5873 82.5982 38.8133 81.1848C36.4118 79.9702 34.1201 78.5368 31.7613 77.2356C30.1221 76.3759 28.9887 74.5793 29.0002 72.6963V44.3076C28.983 42.4606 30.0608 40.6812 31.6588 39.8095C39.8711 35.1132 48.082 30.4133 56.2929 25.7148Z" fill="#8CC84B"/>
<path id="Vector_2" d="M63.4572 45.3796C67.039 45.146 70.8734 45.2412 74.0964 47.0292C76.5919 48.3994 77.9753 51.2751 78.0194 54.0844C77.9497 54.4633 77.5588 54.6723 77.2018 54.6463C76.1626 54.6449 75.1232 54.6606 74.084 54.6392C73.6431 54.6563 73.3869 54.2445 73.3316 53.8496C73.033 52.5054 72.3096 51.1741 71.061 50.5258C69.1444 49.5534 66.9222 49.6023 64.8322 49.6226C63.3065 49.7047 61.6659 49.8386 60.3733 50.7477C59.381 51.4364 59.0796 52.8266 59.4338 53.9462C59.7677 54.7501 60.6835 55.0095 61.4328 55.2486C65.7492 56.3926 70.3233 56.2787 74.5573 57.7842C76.3102 58.398 78.025 59.5911 78.625 61.4509C79.4099 63.9435 79.0659 66.923 77.3158 68.9241C75.8965 70.5708 73.8294 71.4671 71.7677 71.9539C69.025 72.5736 66.1787 72.5893 63.3934 72.3142C60.7744 72.0116 58.0489 71.3144 56.027 69.5061C54.2981 67.9849 53.4536 65.6146 53.5375 63.3269C53.5575 62.9406 53.9371 62.6712 54.3023 62.7029C55.3488 62.6944 56.3953 62.6915 57.4418 62.7044C57.8598 62.6741 58.1697 63.0401 58.1911 63.4393C58.3842 64.72 58.8592 66.0642 59.9612 66.8235C62.0881 68.2139 64.7569 68.1187 67.1923 68.1576C69.2099 68.0669 71.4748 68.0395 73.1213 66.6882C73.99 65.9174 74.2474 64.6279 74.0126 63.5186C73.7583 62.582 72.7914 62.1455 71.9611 61.8601C67.7 60.4943 63.0748 60.9899 58.8549 59.4453C57.1418 58.8318 55.4851 57.6718 54.827 55.8884C53.9086 53.3642 54.3294 50.2421 56.263 48.3085C58.1482 46.3852 60.8697 45.6445 63.4572 45.3794V45.3796Z" fill="#8CC84B"/>
</g>
</g>
</svg>
