<svg width="117" height="117" viewBox="0 0 117 117" fill="none" xmlns="http://www.w3.org/2000/svg">
<g id="ReactJs">
<rect x="1" y="1" width="115" height="115" rx="17" fill="white"/>
<rect x="1" y="1" width="115" height="115" rx="17" stroke="#6D6D6D" stroke-width="2"/>
<g id="reactjs">
<g id="reactjs_2">
<path id="Vector" d="M58.5 64.407C61.7422 64.407 64.3705 61.7624 64.3705 58.5001C64.3705 55.2378 61.7422 52.5932 58.5 52.5932C55.2579 52.5932 52.6296 55.2378 52.6296 58.5001C52.6296 61.7624 55.2579 64.407 58.5 64.407Z" fill="#61DAFB"/>
<path id="Vector_2" d="M58.5 70.6019C75.897 70.6019 90 65.1837 90 58.5C90 51.8163 75.897 46.3981 58.5 46.3981C41.103 46.3981 27 51.8163 27 58.5C27 65.1837 41.103 70.6019 58.5 70.6019Z" stroke="#61DAFB" stroke-width="5"/>
<path id="Vector_3" d="M48.084 64.5509C56.7825 79.7106 68.4974 89.2909 74.25 85.949C80.0025 82.6072 77.6144 67.6087 68.9159 52.449C60.2174 37.2894 48.5025 27.7091 42.75 31.0509C36.9974 34.3928 39.3856 49.3912 48.084 64.5509Z" stroke="#61DAFB" stroke-width="5"/>
<path id="Vector_4" d="M48.0841 52.449C39.3856 67.6087 36.9974 82.6072 42.75 85.949C48.5025 89.2909 60.2174 79.7106 68.9159 64.5509C77.6144 49.3912 80.0025 34.3928 74.25 31.0509C68.4974 27.7091 56.7825 37.2893 48.0841 52.449Z" stroke="#61DAFB" stroke-width="5"/>
</g>
</g>
</g>
</svg>
