<svg width="118" height="118" viewBox="0 0 118 118" fill="none" xmlns="http://www.w3.org/2000/svg">
<g id="SQL">
<rect x="1" y="1" width="116" height="116" rx="17" fill="white"/>
<rect x="1" y="1" width="116" height="116" rx="17" stroke="#6D6D6D" stroke-width="2"/>
<g id="mysql">
<path id="Vector" d="M86.7929 77.0465C83.2019 76.9553 80.4188 77.3212 78.0846 78.3271C77.4112 78.6012 76.3337 78.6015 76.2439 79.4704C76.6031 79.8363 76.648 80.4309 76.9622 80.9337C77.5015 81.8481 78.4435 83.0829 79.2964 83.7234C80.2389 84.4549 81.182 85.1864 82.1691 85.8267C83.92 86.9243 85.8953 87.5643 87.601 88.6619C88.5889 89.3017 89.5758 90.1254 90.5634 90.8112C91.0572 91.1765 91.3712 91.7716 92 92V91.8631C91.6855 91.4512 91.5957 90.8569 91.2817 90.3996C90.8333 89.9422 90.3838 89.5306 89.9349 89.0733C88.6332 87.2902 87.0173 85.7352 85.2668 84.4549C83.8304 83.4488 80.6879 82.077 80.1045 80.3849C80.1045 80.3849 80.0594 80.3394 80.0147 80.2937C81.0021 80.2022 82.1691 79.8363 83.1121 79.5619C84.6382 79.15 86.0297 79.2418 87.601 78.8302C88.319 78.6472 89.0373 78.4186 89.7553 78.1899V77.7785C88.9478 76.9553 88.3641 75.858 87.5112 75.0805C85.2219 73.0679 82.7078 71.1019 80.1045 69.4557C78.7128 68.5411 76.9171 67.9465 75.4359 67.1693C74.8977 66.8946 73.9995 66.7577 73.6855 66.3004C72.8772 65.2945 72.4283 63.9684 71.8449 62.7794C70.5435 60.264 69.2862 57.4747 68.1639 54.8227C67.3563 53.0391 66.8625 51.2554 65.8748 49.6095C61.2513 41.8355 56.2238 37.1254 48.5031 32.5066C46.8421 31.5464 44.867 31.1348 42.7573 30.632C41.6355 30.586 40.5129 30.4948 39.3908 30.4488C38.6725 30.1287 37.9542 29.26 37.3257 28.8484C34.7675 27.2019 28.1685 23.6355 26.2832 28.3456C25.0711 31.3177 28.0789 34.2442 29.111 35.7537C29.8747 36.8053 30.8618 37.9941 31.4005 39.1832C31.7148 39.9602 31.8043 40.7839 32.1186 41.6069C32.8371 43.6184 33.51 45.8596 34.453 47.7347C34.9469 48.6948 35.4853 49.7007 36.1138 50.5697C36.473 51.0725 37.1012 51.3014 37.2362 52.1244C36.6079 53.0391 36.5628 54.4111 36.2034 55.5542C34.5875 60.7216 35.2162 67.1236 37.5053 70.919C38.2233 72.0618 39.9293 74.5777 42.2186 73.617C44.2388 72.7941 43.7898 70.1875 44.3729 67.901C44.5081 67.3517 44.4184 66.9864 44.6875 66.6205V66.7122C45.316 67.9922 45.9442 69.2273 46.5278 70.5076C47.9195 72.7481 50.3433 75.0805 52.3632 76.6355C53.4409 77.4581 54.2936 78.8759 55.6404 79.379V79.2415H55.5504C55.281 78.8299 54.877 78.6472 54.5181 78.3268C53.7103 77.5041 52.8121 76.498 52.1839 75.5833C50.2989 73.0222 48.6376 70.1872 47.1563 67.2605C46.4383 65.8433 45.8095 64.2883 45.2262 62.8708C44.9566 62.3215 44.9566 61.4988 44.5079 61.2247C43.8345 62.2305 42.8471 63.0995 42.3533 64.334C41.5008 66.3004 41.4107 68.724 41.0965 71.2388C40.9169 71.2851 41.0064 71.2388 40.9167 71.3308C39.4806 70.9644 38.9868 69.4557 38.4478 68.1752C37.101 64.9286 36.8765 59.7154 38.044 55.9658C38.3583 55.0054 39.7051 51.9874 39.1663 51.0728C38.897 50.2038 37.9988 49.7007 37.5053 49.015C36.9219 48.146 36.2932 47.0489 35.8894 46.0883C34.8119 43.5274 34.2732 40.6922 33.1062 38.1313C32.5675 36.9422 31.6253 35.708 30.8618 34.6103C30.0091 33.3758 29.0663 32.5066 28.3929 31.0433C28.1687 30.5405 27.8542 29.7173 28.2134 29.1685C28.3031 28.8026 28.4825 28.6657 28.8419 28.5742C29.4255 28.0709 31.0865 28.7112 31.6696 28.9856C33.3307 29.6711 34.7221 30.3119 36.1138 31.272C36.7421 31.7294 37.4155 32.5983 38.2233 32.827H39.1661C40.6027 33.1468 42.2183 32.9184 43.5651 33.3298C45.9445 34.107 48.0988 35.2503 50.0293 36.4852C55.9098 40.2806 60.7572 45.6767 64.0345 52.1244C64.5732 53.1757 64.7974 54.1367 65.2912 55.2338C66.2342 57.4747 67.4012 59.7612 68.3435 61.9561C69.2862 64.1051 70.1838 66.3004 71.5306 68.084C72.204 69.0439 74.8971 69.5472 76.1093 70.0503C77.0071 70.4616 78.3988 70.8278 79.2067 71.3306C80.7328 72.2905 82.2589 73.3886 83.6955 74.44C84.4138 74.9888 86.6579 76.1321 86.7929 77.0465Z" fill="#00546B"/>
<path id="Vector_2" d="M41.0062 37.3079C40.2433 37.3079 39.7048 37.3999 39.1661 37.5368V37.6283H39.2559C39.6153 38.36 40.2433 38.8631 40.6919 39.5031C41.0513 40.2346 41.3653 40.9666 41.7247 41.6983C41.7694 41.6523 41.8143 41.6069 41.8143 41.6069C42.443 41.1493 42.757 40.4178 42.757 39.3202C42.4877 39.0003 42.4428 38.6801 42.2183 38.36C41.9492 37.9024 41.3653 37.674 41.0062 37.3079Z" fill="#00546B"/>
</g>
</g>
</svg>
