<svg width="118" height="118" viewBox="0 0 118 118" fill="none" xmlns="http://www.w3.org/2000/svg">
<g id="WordPress ">
<rect x="1" y="1" width="116" height="116" rx="17" fill="white"/>
<rect x="1" y="1" width="116" height="116" rx="17" stroke="#6D6D6D" stroke-width="2"/>
<g id="wordpress">
<path id="Vector" d="M30.6907 58.9989C30.6907 70.2048 37.2025 79.888 46.6451 84.4774L33.1416 47.4778C31.5228 51.1028 30.6876 55.0288 30.6907 58.9989ZM78.1096 57.5703C78.1096 54.0717 76.8529 51.6487 75.7751 49.7628C74.3401 47.4309 72.9956 45.4562 72.9956 43.1243C72.9956 40.5219 74.9687 38.0995 77.7487 38.0995C77.8742 38.0995 77.9933 38.1152 78.1161 38.1222C73.0791 33.5079 66.3691 30.6907 58.9992 30.6907C49.1095 30.6907 40.4086 35.7649 35.3468 43.4507C36.011 43.4706 36.6374 43.4841 37.1685 43.4841C40.1295 43.4841 44.713 43.1248 44.713 43.1248C46.239 43.0348 46.4189 45.2762 44.895 45.4567C44.895 45.4567 43.3609 45.6372 41.6545 45.7266L51.9633 76.3904L58.1589 57.81L53.7478 45.726C52.2234 45.6366 50.7793 45.4562 50.7793 45.4562C49.2538 45.3667 49.4327 43.0343 50.9581 43.1243C50.9581 43.1243 55.6331 43.4836 58.4147 43.4836C61.3752 43.4836 65.9592 43.1243 65.9592 43.1243C67.4862 43.0343 67.6656 45.2757 66.1407 45.4562C66.1407 45.4562 64.6039 45.6366 62.9007 45.726L73.1308 76.1577L75.9539 66.7218C77.1783 62.8062 78.1096 59.9938 78.1096 57.5703Z" fill="#00749A"/>
<path id="Vector_2" d="M59.4958 61.4752L51.0023 86.1559C53.599 86.9212 56.2921 87.3098 58.9992 87.3097C62.2958 87.3097 65.4571 86.7393 68.3998 85.7051C68.3209 85.5815 68.2534 85.4509 68.1984 85.3151L59.4958 61.4752ZM83.8388 45.4169C83.9605 46.3186 84.0295 47.2871 84.0295 48.3278C84.0295 51.2006 83.493 54.4299 81.877 58.4678L73.23 83.469C81.6459 78.5612 87.3067 69.4432 87.3067 58.9989C87.3142 54.2516 86.1213 49.5794 83.8388 45.4169Z" fill="#00749A"/>
<path id="Vector_3" d="M58.9992 26C40.8039 26 26 40.8032 26 58.9989C26 77.1968 40.8034 92 58.9992 92C77.1939 92 92 77.1973 92 58.9989C91.9995 40.8032 77.1939 26 58.9992 26ZM58.9992 90.4869C41.6383 90.4869 27.5131 76.3613 27.5131 58.9989C27.5131 41.6381 41.6377 27.5137 58.9992 27.5137C76.3596 27.5137 90.4837 41.6381 90.4837 58.9989C90.4837 76.3613 76.359 90.4869 58.9992 90.4869Z" fill="#00749A"/>
</g>
</g>
</svg>
